General
Complete name                            : Discovery.Channel.Equator.S01.E01.Power.Of.An.Ocean.P2P4FREE.mp4
Format                                   : MPEG-4
Format profile                           : Base Media / Version 2
Codec ID                                 : mp42
File size                                : 238 MiB
Duration                                 : 52mn 10s
Overall bit rate mode                    : Variable
Overall bit rate                         : 638 Kbps

Video
ID                                       : 1
Format                                   : AVC
Format/Info                              : Advanced Video Codec
Format profile                           : Baseline@L3.0
Format settings, CABAC                   : No
Format settings, ReFrames                : 1 frame
Format settings, GOP                     : M=1, N=60
Codec ID                                 : avc1
Codec ID/Info                            : Advanced Video Coding
Duration                                 : 52mn 10s
Bit rate                                 : 539 Kbps
Maximum bit rate                         : 2 399 Kbps
Width                                    : 640 pixels
Height                                   : 360 pixels
Display aspect ratio                     : 16:9
Frame rate mode                          : Constant
Frame rate                               : 30.000 fps
Color space                              : YUV
Chroma subsampling                       : 4:2:0
Bit depth                                : 8 bits
Scan type                                : Progressive
Bits/(Pixel*Frame)                       : 0.078
Stream size                              : 201 MiB (85%)
Tagged date                              : UTC 2013-02-17 00:16:07

Audio
ID                                       : 2
Format                                   : AAC
Format/Info                              : Advanced Audio Codec
Format profile                           : LC
Codec ID                                 : 40
Duration                                 : 52mn 10s
Bit rate mode                            : Variable
Bit rate                                 : 96.0 Kbps
Maximum bit rate                         : 103 Kbps
Channel(s)                               : 2 channels
Channel positions                        : Front: L R
Sampling rate                            : 44.1 KHz
Compression mode                         : Lossy
Stream size                              : 35.8 MiB (15%)

IMDB : http://www.imdb.com/title/tt2317693/

SCREENS
---------------------------------- 
http://share.pho.to/2SAhJ/original 
http://share.pho.to/2SAhe/original 
http://share.pho.to/2SAhK/original 
http://share.pho.to/2SAhc/original 
http://share.pho.to/2SAhd/original 
http://share.pho.to/2SAhL/original
----------------------------------

enjoy ;)